<svg id="Layer_1" data-name="Layer 1" xmlns="http://www.w3.org/2000/svg" viewBox="0 0 500 500"><defs><style>.cls-1{fill:#2ca8ce;}</style></defs><path class="cls-1" d="M139.82,224.81a2.75,2.75,0,0,0,2.24-1.28,2.69,2.69,0,0,0,.09-2.55l-9.57-19.28a2.69,2.69,0,0,0-2.44-1.48l-75.27,1.61a2.68,2.68,0,0,0-1.81.79L33.67,222a2.7,2.7,0,0,0-.59,2.94,2.73,2.73,0,0,0,2.5,1.62Zm0,0"/><path class="cls-1" d="M125.87,262.25c.72,0,2,.32,2.51-.2l0,0c.53-.53.2-1.84.15-2.6l-1.89-18.56a2.64,2.64,0,0,0-2.6-2.46L17.7,237.65a2.72,2.72,0,0,0-1.9.77l-8,8a2.66,2.66,0,0,0,0,3.76l9,9a3.77,3.77,0,0,0,2.08,1.07Zm0,0"/><path class="cls-1" d="M53.67,296.07l83.83-2.29a2.66,2.66,0,0,0,2.54-2.07l4-18a2.6,2.6,0,0,0-.53-2.25,2.66,2.66,0,0,0-2.07-1l-106.2,1.91a2.76,2.76,0,0,0-1.88.77,2.93,2.93,0,0,0-.58.88,2.63,2.63,0,0,0,.61,2.88L51.76,295.3a2.59,2.59,0,0,0,1.91.77Zm0,0"/><path class="cls-1" d="M474.74,218.38,212.56,67C188.21,53,157.79,70.52,157.79,98.63V401.37c0,28.11,30.42,45.68,54.77,31.62L474.74,281.62C499.09,267.57,499.09,232.43,474.74,218.38ZM313.8,294.59A44.59,44.59,0,1,1,358.39,250,44.59,44.59,0,0,1,313.8,294.59Z"/></svg>